<svg xmlns="http://www.w3.org/2000/svg" xmlns:xlink="http://www.w3.org/1999/xlink" width="1749" height="869"><defs><path id="b" d="M1184.977 325.484C899.46 111.884 518.28 70.143 194.473 211.91c-27.819-54.408-64.765-104-109.022-145.924C70.243 51.561 53.914 37.8 36.926 25.09 25.489 16.532 13.299 8.248 0 0v860.642h1547.53c-55.588-206.795-178.218-397.256-362.553-535.158"/><path id="f" d="M0 868.743h1270.541C1261.121 545.556 1123.348 228.316 869.466 0H0z"/><path id="k" d="M0 868.743h975.982C945.487 538.148 780.492 220.771 494.274 6.648A1075 1075 0 0 0 485.297 0H0z"/><path id="p" d="M389.215 175.315C272.06 87.67 138.795 28.968 0 0v814.776h773.901C735.24 568.442 604.185 336.141 389.215 175.315"/><path id="r" d="M550.894 346.734C409.766 169.557 213.734 49.71 0 0v412.198h598.826a999 999 0 0 0-47.932-65.46z"/><path id="t" d="M0 868.743h1270.541C1261.121 545.556 1123.348 228.316 869.466 0H0z"/><path id="w" d="M389.215 175.315C272.06 87.67 138.795 28.968 0 0v814.776h773.901C735.24 568.442 604.185 336.141 389.215 175.315"/><path id="z" d="M550.894 346.734C409.766 169.557 213.734 49.71 0 0v412.198h598.826a999 999 0 0 0-47.932-65.46z"/><path id="A" d="M550.894 346.734C409.766 169.557 213.734 49.71 0 0v412.198h598.826a999 999 0 0 0-47.932-65.46z"/><linearGradient id="a" x1="0%" x2="100%" y1="50%" y2="50%"><stop offset="0%" stop-color="#FFF"/><stop offset="51%" stop-color="#D0D0D0"/><stop offset="62%" stop-color="#C4C4C4"/><stop offset="68%" stop-color="#BCBCBC"/><stop offset="76%" stop-color="#AEAEAE"/><stop offset="87%" stop-color="#929292"/><stop offset="94%" stop-color="#7B7B7B"/><stop offset="100%" stop-color="#707070"/></linearGradient><linearGradient id="c" x1="77.457%" x2="91.066%" y1="48.431%" y2="65.465%"><stop offset="0%" stop-color="#5D5D5D"/><stop offset="100%" stop-color="#545454"/></linearGradient><linearGradient id="g" x1="50%" x2="90.628%" y1="26.624%" y2="73.376%"><stop offset="0%" stop-color="#A1A0A0"/><stop offset="53.106%" stop-color="#6E6E6E"/><stop offset="100%" stop-color="#393939"/></linearGradient><linearGradient id="h" x1="50%" x2="90.777%" y1="26.624%" y2="73.376%"><stop offset="0%" stop-color="#7D7D7D"/><stop offset="53.872%" stop-color="#757575"/><stop offset="100%" stop-color="#717171"/></linearGradient><linearGradient id="l" x1="0%" x2="78.826%" y1="10.384%" y2="89.278%"><stop offset="0%" stop-color="#E8E7E7"/><stop offset="100%" stop-color="#828282"/></linearGradient><linearGradient id="m" x1="0%" x2="79.163%" y1="10.384%" y2="89.616%"><stop offset="0%" stop-color="#9E9E9E"/><stop offset="50.435%" stop-color="#A0A0A0"/><stop offset="100%" stop-color="#8F8F8F"/></linearGradient><linearGradient id="q" x1="4.891%" x2="82.825%" y1="15.326%" y2="100%"><stop offset="0%" stop-color="#B9B9B9"/><stop offset="100%" stop-color="#B5B5B5"/></linearGradient><linearGradient id="s" x1="0%" x2="77.386%" y1="37.988%" y2="73.691%"><stop offset="0%" stop-color="#CFCECE"/><stop offset="100%" stop-color="#C6C6C6"/></linearGradient><radialGradient id="d" cx="46.062%" cy="120.164%" r="99.126%" fx="46.062%" fy="120.164%" gradientTransform="scale(.5561 1)rotate(-31.009 .644 .539)"><stop offset="0%" stop-color="#FFF" stop-opacity="0"/><stop offset="69.804%" stop-opacity="0"/><stop offset="85.997%" stop-color="#FFF" stop-opacity=".082"/><stop offset="100%" stop-color="#FFF" stop-opacity=".253"/></radialGradient><radialGradient id="i" cx="19.041%" cy="98.342%" r="117.604%" fx="19.041%" fy="98.342%" gradientTransform="scale(.6838 1)rotate(-19.053 .234 .721)"><stop offset="0%" stop-color="#FFF" stop-opacity="0"/><stop offset="83.564%" stop-color="#FFF" stop-opacity="0"/><stop offset="90.281%" stop-color="#FFF" stop-opacity=".04"/><stop offset="100%" stop-color="#FFF" stop-opacity=".19"/></radialGradient><radialGradient id="n" cx="-21.089%" cy="110.984%" r="136.39%" fx="-21.089%" fy="110.984%" gradientTransform="matrix(.73827 -.55862 .49722 .82943 -.607 .071)"><stop offset="0%" stop-color="#FFF" stop-opacity="0"/><stop offset="92.97%" stop-color="#FFF" stop-opacity="0"/><stop offset="100%" stop-color="#FFF" stop-opacity=".15"/></radialGradient><radialGradient id="u" cx="3.597%" cy="104.668%" r="142.191%" fx="3.597%" fy="104.668%" gradientTransform="scale(.6838 1)rotate(-31.19 .044 1.017)"><stop offset="0%" stop-opacity="0"/><stop offset="86.107%" stop-color="#FFF" stop-opacity="0"/><stop offset="92.28%" stop-color="#FFF" stop-opacity=".04"/><stop offset="100%" stop-color="#FFF" stop-opacity=".1"/></radialGradient><radialGradient id="x" cx="-22.502%" cy="115.634%" r="124.365%" fx="-22.502%" fy="115.634%" gradientTransform="matrix(.71293 -.66604 .70124 .67714 -.875 .223)"><stop offset="0%" stop-color="#FFF" stop-opacity="0"/><stop offset="74.916%" stop-opacity="0"/><stop offset="83.304%" stop-color="#FFF" stop-opacity=".02"/><stop offset="100%" stop-color="#FFF" stop-opacity=".2"/></radialGradient><radialGradient id="B" cx="-32.076%" cy="223.136%" r="229.708%" fx="-32.076%" fy="223.136%" gradientTransform="scale(.6883 1)rotate(-55.992 -.393 2.368)"><stop offset="0%" stop-color="#FFF" stop-opacity="0"/><stop offset="68.837%" stop-opacity="0"/><stop offset="100%" stop-color="#FFF" stop-opacity=".31"/></radialGradient></defs><g fill="none" fill-rule="evenodd"><g style="mix-blend-mode:overlay"><path fill="url(#a)" fill-rule="nonzero" d="M0 0h1749v868.829H0z"/><g transform="translate(0 8.1)"><mask id="e" fill="#fff"><use xlink:href="#b"/></mask><use xlink:href="#b" fill="url(#c)"/><path fill="url(#d)" d="M1184.977 325.484C899.46 111.884 518.28 70.143 194.473 211.91c-27.819-54.408-64.765-104-109.022-145.924C70.243 51.561 53.914 37.8 36.926 25.09 25.489 16.532 13.299 8.248 0 0v860.642h1547.53c-55.588-206.795-178.218-397.256-362.553-535.158" mask="url(#e)"/></g><mask id="j" fill="#fff"><use xlink:href="#f"/></mask><use xlink:href="#f" fill="url(#g)"/><use xlink:href="#f" fill="url(#h)"/><path fill="url(#i)" d="M0 868.743h1270.541C1261.121 545.556 1123.348 228.316 869.466 0H0z" mask="url(#j)"/><mask id="o" fill="#fff"><use xlink:href="#k"/></mask><use xlink:href="#k" fill="url(#l)"/><use xlink:href="#k" fill="url(#m)"/><path fill="url(#n)" d="M0 868.743h975.982C945.487 538.148 780.492 220.771 494.274 6.648A1075 1075 0 0 0 485.297 0H0z" mask="url(#o)"/><use xlink:href="#p" fill="url(#q)" transform="translate(0 53.967)"/><use xlink:href="#r" fill="url(#s)" transform="translate(0 456.548)"/></g><mask id="v" fill="#fff"><use xlink:href="#t"/></mask><path fill="url(#u)" d="M0 868.743h1270.541C1261.121 545.556 1123.348 228.316 869.466 0H0z" mask="url(#v)"/><g transform="translate(0 53.967)"><mask id="y" fill="#fff"><use xlink:href="#w"/></mask><path fill="url(#x)" d="M389.215 175.315C272.06 87.67 138.795 28.968 0 0v814.776h773.901C735.24 568.442 604.185 336.141 389.215 175.315" mask="url(#y)"/></g><g transform="translate(0 456.548)"><use xlink:href="#A" fill="url(#B)"/></g></g></svg>